<svg xmlns="http://www.w3.org/2000/svg" viewBox="0 0 24 24" fill="none">
  <defs>
    <linearGradient id="gear-gradient" x1="0%" y1="0%" x2="100%" y2="100%">
      <stop offset="0%" stop-color="#3B82F6"/>
      <stop offset="100%" stop-color="#06B6D4"/>
    </linearGradient>
  </defs>
  <path d="M12 15C13.6569 15 15 13.6569 15 12C15 10.3431 13.6569 9 12 9C10.3431 9 9 10.3431 9 12C9 13.6569 10.3431 15 12 15Z" fill="url(#gear-gradient)"/>
  <path fill-rule="evenodd" clip-rule="evenodd" d="M12 2C12.5523 2 13 2.44772 13 3V3.09C14.0573 3.24888 15.0575 3.60813 15.9497 4.13265L16.0107 4.06066C16.4012 3.67014 17.0344 3.67014 17.4249 4.06066L19.9393 6.57508C20.3299 6.96561 20.3299 7.59877 19.9393 7.9893L19.8674 8.06132C20.3919 8.95356 20.7511 9.95374 20.91 11H21C21.5523 11 22 11.4477 22 12C22 12.5523 21.5523 13 21 13H20.91C20.7511 14.0463 20.3919 15.0464 19.8674 15.9387L19.9393 16.0107C20.3299 16.4012 20.3299 17.0344 19.9393 17.4249L17.4249 19.9393C17.0344 20.3299 16.4012 20.3299 16.0107 19.9393L15.9387 19.8674C15.0464 20.3919 14.0463 20.7511 13 20.91V21C13 21.5523 12.5523 22 12 22C11.4477 22 11 21.5523 11 21V20.91C9.95374 20.7511 8.95356 20.3919 8.06132 19.8674L7.9893 19.9393C7.59877 20.3299 6.96561 20.3299 6.57508 19.9393L4.06066 17.4249C3.67014 17.0344 3.67014 16.4012 4.06066 16.0107L4.13265 15.9388C3.60813 15.0466 3.24888 14.0464 3.09 13H3C2.44772 13 2 12.5523 2 12C2 11.4477 2.44772 11 3 11H3.09C3.24888 9.95362 3.60813 8.95343 4.13265 8.06118L4.06066 7.9893C3.67014 7.59877 3.67014 6.96561 4.06066 6.57508L6.57508 4.06066C6.96561 3.67014 7.59877 3.67014 7.9893 4.06066L8.05035 4.12171C8.94654 3.60408 9.94922 3.24885 11 3.09V3C11 2.44772 11.4477 2 12 2ZM12 17C14.7614 17 17 14.7614 17 12C17 9.23858 14.7614 7 12 7C9.23858 7 7 9.23858 7 12C7 14.7614 9.23858 17 12 17Z" fill="url(#gear-gradient)"/>
</svg>
